<?xml version="1.0" standalone="no"?><!DOCTYPE svg PUBLIC "-//W3C//DTD SVG 1.1//EN" "http://www.w3.org/Graphics/SVG/1.1/DTD/svg11.dtd"><svg t="1585619580156" class="icon" viewBox="0 0 1024 1024" version="1.1" xmlns="http://www.w3.org/2000/svg" p-id="755" xmlns:xlink="http://www.w3.org/1999/xlink" width="200" height="200"><defs><style type="text/css"></style></defs><path d="M940.396089 573.212444 658.8416 829.212444c-4.187022 3.822933-10.695111 3.504356-14.472533-0.705422l-94.776889-123.426133L275.956622 650.057956l-67.720533 47.695644 22.573511-159.288889 48.878933 68.130133 212.536889 23.870578-165.4784-215.4496-1.661156 1.501867c-2.070756 1.911467-5.302044 1.729422-7.213511-0.386844l-18.386489-16.475022c-1.888711-2.116267-1.729422-5.347556 0.364089-7.259022l243.416178-221.343289c2.116267-1.888711 5.347556-1.729422 7.236267 0.386844l18.386489 16.475022C570.7776 190.008889 570.641067 193.262933 568.5248 195.1744l-5.484089 5.006222 63.670044 60.416c74.478933-89.565867 186.413511-43.440356 186.413511-43.440356 146.136178 98.963911 81.328356 235.679289 58.094933 275.273956l69.905067 66.264178C944.924444 562.904178 944.583111 569.435022 940.396089 573.212444L940.396089 573.212444zM643.322311 430.8992c-1.137778 0.659911-2.366578 1.388089-3.6864 2.048l-6.690133 6.098489c-1.683911 2.048-2.821689 3.663644-3.367822 4.892444-0.568889 1.206044-1.251556 2.321067-2.025244 3.345067-0.728178 1.046756-1.342578 2.4576-1.820444 4.278044l-1.979733-1.319822-0.068267-0.955733-7.304533-8.123733c-2.025244-1.615644-3.640889-2.707911-4.846933-3.2768-1.183289-0.546133-2.366578-1.092267-3.572622-1.6384-1.206044-0.568889-2.4576-1.024-3.800178-1.4336-1.388089-0.432356-2.844444-0.773689-4.460089-1.024-1.661156-0.2048-3.322311-0.386844-5.074489-0.455111-1.729422-0.068267-3.959467-0.136533-6.690133-0.250311l-0.591644 0.523378-10.740622 2.753422c-2.616889 1.024-4.482844 1.8432-5.575111 2.503111-1.092267 0.637156-2.002489 1.297067-2.776178 2.002489l-1.024 0.910222-1.092267-0.022756-7.281778 6.621867c-1.456356 2.048-2.639644 3.640889-3.436089 4.687644-0.773689 1.092267-1.479111 2.207289-2.048 3.436089-0.591644 1.206044-1.206044 2.389333-1.797689 3.549867-0.6144 1.160533-1.115022 2.4576-1.524622 3.868444-0.432356 1.410844-0.773689 2.912711-1.115022 4.5056-0.341333 1.592889-0.682667 3.618133-1.115022 6.052978l0.477867 0.591644 3.140267 18.136178c1.274311 2.184533 2.184533 3.800178 2.821689 4.846933 0.591644 1.092267 1.274311 2.002489 1.934222 2.776178l5.370311 5.984711-0.068267 1.092267-12.401778 5.302044-1.160533 1.046756-1.092267-0.068267-5.5296 5.028978c-1.456356 2.048-2.616889 3.618133-3.436089 4.687644-0.773689 1.092267-1.456356 2.184533-2.116267 3.367822-0.6144 1.160533-1.137778 2.434844-1.547378 3.845689-0.386844 1.410844-0.796444 2.821689-1.206044 4.209778-0.432356 1.4336-0.750933 2.935467-1.115022 4.528356-0.318578 1.547378-0.705422 3.595378-1.137778 6.098489l0.386844 0.4096 3.731911 17.635556c0.841956 2.480356 1.615644 4.3008 2.275556 5.415822 0.659911 1.115022 1.297067 2.048 1.888711 2.707911l1.547378 1.683911 3.413333 4.983467c2.002489 1.4336 3.504356 2.525867 4.482844 3.254044 1.024 0.705422 2.116267 1.342578 3.322311 1.911467s2.389333 1.160533 3.595378 1.774933c1.206044 0.659911 2.389333 1.251556 3.618133 1.820444 1.206044 0.523378 2.4576 0.978489 3.868444 1.388089 1.4336 0.364089 2.8672 0.659911 4.391822 0.887467 1.547378 0.273067 2.8672 0.568889 3.913956 0.978489l0.591644-0.477867 13.334756-3.072c2.639644-1.024 4.551111-1.774933 5.779911-2.275556 1.251556-0.523378 2.389333-0.932978 3.527111-1.297067l2.594133 17.590044c0.841956 2.525867 1.615644 4.346311 2.298311 5.461333 0.659911 1.160533 1.4336 2.184533 2.389333 3.254044l6.394311 7.122489c2.048 1.456356 3.663644 2.480356 4.892444 3.117511 1.274311 0.568889 2.4576 1.206044 3.595378 1.774933 1.160533 0.6144 2.412089 1.069511 3.822933 1.456356 1.4336 0.364089 2.753422 0.750933 4.141511 1.206044 1.342578 0.364089 2.798933 0.705422 4.460089 0.978489 1.615644 0.227556 3.322311 0.4096 5.028978 0.455111 1.729422 0.091022 3.982222 0.136533 6.690133 0.273067l0.591644-0.523378 12.401778-3.254044c2.525867-0.932978 4.346311-1.729422 5.506844-2.389333 1.137778-0.705422 2.048-1.342578 2.707911-1.956978l9.0112-8.214756c1.160533-2.434844 2.116267-4.141511 2.844444-5.165511 0.750933-1.024 1.388089-2.275556 1.865956-3.6864 0.477867-1.388089 0.955733-2.753422 1.388089-4.187022 0.386844-1.4336 0.659911-2.980978 0.773689-4.7104 0.113778-1.774933 0.2048-3.458844 0.318578-5.233778 0.113778-1.729422 0.182044-2.980978 0.227556-3.6864L677.888 582.769778l-0.6144-7.463822 0.546133-0.523378 16.133689 3.254044 0.591644-0.523378 12.379022-3.254044c2.525867-0.887467 4.323556-1.683911 5.415822-2.366578 1.092267-0.6144 2.048-1.297067 2.821689-2.002489l9.0112-8.169244c1.479111-2.093511 2.548622-3.6864 3.117511-4.937956 0.591644-1.206044 1.160533-2.434844 1.706667-3.640889 0.591644-1.251556 1.137778-2.525867 1.615644-3.959467 0.500622-1.388089 0.955733-2.798933 1.388089-4.232533 0.4096-1.388089 0.728178-2.844444 1.024-4.391822s0.523378-4.050489 0.728178-7.554844l-0.500622-0.546133L730.453333 517.848178c-0.932978-2.389333-1.752178-4.141511-2.366578-5.233778-0.6144-1.046756-1.4336-2.184533-2.4576-3.299556l-1.934222-2.161778-1.342578-2.6624c-2.116267-1.547378-3.663644-2.685156-4.687644-3.413333-0.978489-0.705422-1.956978-1.4336-2.958222-2.207289-0.932978-0.773689-2.002489-1.4336-3.231289-2.002489-1.206044-0.523378-2.503111-1.024-3.959467-1.4336s-2.912711-0.728178-4.460089-0.978489c-1.547378-0.250311-3.6864-0.728178-6.462578-1.501867 1.570133-2.116267 2.6624-3.800178 3.231289-5.028978 0.591644-1.206044 1.206044-2.389333 1.797689-3.549867 0.637156-1.160533 1.251556-2.366578 1.797689-3.595378 0.591644-1.2288 1.137778-2.525867 1.547378-4.004978 0.455111-1.4336 0.978489-3.709156 1.524622-6.803911l-0.523378-0.591644-3.208533-17.043911c-0.841956-2.503111-1.570133-4.278044-2.207289-5.393067-0.591644-1.046756-1.274311-2.002489-1.956978-2.753422l-2.434844-2.707911-0.568889-1.547378-0.955733-0.182044-4.892444-5.415822c-2.480356-1.160533-4.232533-2.139022-5.233778-2.844444-1.024-0.750933-2.707911-1.661156-5.097244-2.753422l-15.177956-3.345067-0.568889 0.523378-14.836622 2.616889C646.280533 429.397333 644.460089 430.216533 643.322311 430.8992L643.322311 430.8992zM796.4672 260.050489c-88.2688-56.752356-138.0352 27.283911-139.309511 29.422933l176.082489 166.912C892.609422 359.059911 796.4672 260.050489 796.4672 260.050489L796.4672 260.050489zM653.949156 548.317867c-14.472533 13.1072-36.226844 12.674844-48.583111-1.069511s-10.672356-35.498667 3.800178-48.651378c14.472533-13.152711 36.226844-12.6976 48.583111 1.024C670.151111 513.342578 668.421689 535.1424 653.949156 548.317867L653.949156 548.317867zM172.100267 821.794133c-15.496533 0-28.0576-12.629333-28.0576-28.171378 0-15.519289 12.561067-28.080356 28.0576-28.080356s28.0576 12.583822 28.0576 28.080356C200.135111 809.1648 187.574044 821.794133 172.100267 821.794133L172.100267 821.794133zM142.495289 688.105244c-9.921422 0-17.954133-8.078222-17.954133-18.136178 0-9.989689 8.032711-18.090667 17.954133-18.090667 9.898667 0 17.931378 8.078222 17.931378 18.090667C160.403911 680.004267 152.3712 688.105244 142.495289 688.105244L142.495289 688.105244zM99.145956 776.715378c-12.379022 0-22.459733-10.0352-22.459733-22.482489s10.057956-22.528 22.459733-22.528 22.414222 10.080711 22.414222 22.528S111.547733 776.715378 99.145956 776.715378L99.145956 776.715378z" p-id="756"></path></svg>